<?xml version="1.0" encoding="UTF-8"?>
<!DOCTYPE svg PUBLIC "-//W3C//DTD SVG 1.1//EN" "http://www.w3.org/Graphics/SVG/1.1/DTD/svg11.dtd">
<svg xmlns="http://www.w3.org/2000/svg" version="1.1" width="494px" height="476px" style="shape-rendering:geometricPrecision; text-rendering:geometricPrecision; image-rendering:optimizeQuality; fill-rule:evenodd; clip-rule:evenodd" xmlns:xlink="http://www.w3.org/1999/xlink">
<g><path style="opacity:0.999" fill="#b5e9fe" d="M 241.5,4.5 C 254.197,7.80766 266.863,11.3077 279.5,15C 338.945,34.2589 398.612,52.9255 458.5,71C 464.844,73.3366 471.178,75.67 477.5,78C 478.46,79.4194 479.293,80.9194 480,82.5C 480.667,185.833 480.667,289.167 480,392.5C 479.214,395.583 477.381,397.749 474.5,399C 397.98,423.401 321.313,447.234 244.5,470.5C 167.356,447.364 90.3555,423.531 13.5,399C 10.6193,397.749 8.78597,395.583 8,392.5C 7.33333,289.167 7.33333,185.833 8,82.5C 8.66667,81.1667 9.33333,79.8333 10,78.5C 16.3937,75.8117 22.8937,73.3117 29.5,71C 100.538,49.6268 171.205,27.4602 241.5,4.5 Z"/></g>
<g><path style="opacity:1" fill="#247e9f" d="M 458.5,94.5 C 458.833,189.836 458.5,285.169 457.5,380.5C 456.914,380.709 456.414,381.043 456,381.5C 452.707,379.792 449.207,378.792 445.5,378.5C 427.979,373.771 410.646,368.437 393.5,362.5C 393.667,326.832 393.5,291.165 393,255.5C 369.181,247.116 345.181,239.116 321,231.5C 320.667,196.5 320.333,161.5 320,126.5C 295.16,118.435 270.327,110.435 245.5,102.5C 245.5,77.8333 245.5,53.1667 245.5,28.5C 316.69,50.1203 387.69,72.1203 458.5,94.5 Z"/></g>
<g><path style="opacity:1" fill="#69afca" d="M 241.5,102.5 C 216.914,109.852 192.414,117.518 168,125.5C 167.5,160.832 167.333,196.165 167.5,231.5C 142.707,238.264 118.207,245.931 94,254.5C 93.5,290.832 93.3333,327.165 93.5,363.5C 75.0006,368.434 56.6672,373.934 38.5,380C 35.3122,381.383 32.1455,381.549 29,380.5C 28.3333,285.167 28.3333,189.833 29,94.5C 99.7256,71.9792 170.559,49.9792 241.5,28.5C 241.5,53.1667 241.5,77.8333 241.5,102.5 Z"/></g>
<g><path style="opacity:1" fill="#67afcb" d="M 458.5,94.5 C 459.832,190.001 459.832,285.668 458.5,381.5C 453.862,381.957 449.529,380.957 445.5,378.5C 449.207,378.792 452.707,379.792 456,381.5C 456.414,381.043 456.914,380.709 457.5,380.5C 458.5,285.169 458.833,189.836 458.5,94.5 Z"/></g>
<g><path style="opacity:1" fill="#fdfcf8" d="M 241.5,102.5 C 242.833,102.5 244.167,102.5 245.5,102.5C 270.327,110.435 295.16,118.435 320,126.5C 320.333,161.5 320.667,196.5 321,231.5C 345.181,239.116 369.181,247.116 393,255.5C 393.5,291.165 393.667,326.832 393.5,362.5C 392.128,363.512 390.795,364.512 389.5,365.5C 367.095,372.023 344.761,378.857 322.5,386C 320.667,386.167 318.833,386.333 317,386.5C 310.036,385.624 303.203,384.124 296.5,382C 278.772,375.59 260.772,370.09 242.5,365.5C 217.927,372.646 193.427,379.98 169,387.5C 146.255,380.271 123.422,373.271 100.5,366.5C 98.1879,365.659 95.8546,364.659 93.5,363.5C 93.3333,327.165 93.5,290.832 94,254.5C 118.207,245.931 142.707,238.264 167.5,231.5C 167.333,196.165 167.5,160.832 168,125.5C 192.414,117.518 216.914,109.852 241.5,102.5 Z"/></g>
<g><path style="opacity:1" fill="#fed222" d="M 252.5,111.5 C 254.936,112.871 257.603,113.871 260.5,114.5C 274.863,118.675 289.196,123.008 303.5,127.5C 301.928,128.687 300.261,129.687 298.5,130.5C 280.075,135.788 261.741,141.454 243.5,147.5C 235.096,144.984 226.762,142.317 218.5,139.5C 216.485,138.076 214.152,137.41 211.5,137.5C 201.933,134.944 192.6,131.777 183.5,128C 201.991,121.5 220.657,115.5 239.5,110C 243.955,109.422 248.288,109.922 252.5,111.5 Z"/></g>
<g><path style="opacity:1" fill="#ffefb3" d="M 252.5,111.5 C 255.716,111.345 258.383,112.345 260.5,114.5C 257.603,113.871 254.936,112.871 252.5,111.5 Z"/></g>
<g><path style="opacity:1" fill="#fff0bb" d="M 303.5,127.5 C 304.773,128.077 304.773,128.743 303.5,129.5C 301.929,130.309 300.262,130.643 298.5,130.5C 300.261,129.687 301.928,128.687 303.5,127.5 Z"/></g>
<g><path style="opacity:1" fill="#fbcb97" d="M 175.5,133.5 C 174.502,165.662 174.168,197.996 174.5,230.5C 173.17,197.998 173.17,165.331 174.5,132.5C 175.107,132.624 175.44,132.957 175.5,133.5 Z"/></g>
<g><path style="opacity:1" fill="#fee096" d="M 313.5,230.5 C 313.667,198.165 313.5,165.832 313,133.5C 311.644,134.38 310.144,134.714 308.5,134.5C 310.214,133.262 312.214,132.595 314.5,132.5C 314.832,165.338 314.498,198.004 313.5,230.5 Z"/></g>
<g><path style="opacity:1" fill="#f99a34" d="M 175.5,133.5 C 196.594,139.917 217.594,146.584 238.5,153.5C 238.833,185.507 238.5,217.507 237.5,249.5C 234.979,248.215 232.313,247.548 229.5,247.5C 211.028,242.298 192.695,236.632 174.5,230.5C 174.168,197.996 174.502,165.662 175.5,133.5 Z"/></g>
<g><path style="opacity:1" fill="#fec330" d="M 313.5,230.5 C 292.147,237.17 270.814,243.837 249.5,250.5C 248.5,217.84 248.167,185.173 248.5,152.5C 268.519,146.628 288.519,140.628 308.5,134.5C 310.144,134.714 311.644,134.38 313,133.5C 313.5,165.832 313.667,198.165 313.5,230.5 Z"/></g>
<g><path style="opacity:1" fill="#ffe47c" d="M 211.5,137.5 C 214.152,137.41 216.485,138.076 218.5,139.5C 215.848,139.59 213.515,138.924 211.5,137.5 Z"/></g>
<g><path style="opacity:1" fill="#faa246" d="M 238.5,153.5 C 239.498,185.662 239.832,217.996 239.5,250.5C 235.838,250.277 232.505,249.277 229.5,247.5C 232.313,247.548 234.979,248.215 237.5,249.5C 238.5,217.507 238.833,185.507 238.5,153.5 Z"/></g>
<g><path style="opacity:1" fill="#fed224" d="M 166.5,237.5 C 187.778,242.814 208.778,249.147 229.5,256.5C 211.572,262.42 193.572,268.253 175.5,274C 172.232,275.213 168.899,275.546 165.5,275C 146.669,269.13 128.002,262.964 109.5,256.5C 128.491,249.948 147.491,243.614 166.5,237.5 Z"/></g>
<g><path style="opacity:1" fill="#fed225" d="M 352.5,248.5 C 354.515,249.924 356.848,250.59 359.5,250.5C 365.409,252.692 371.409,254.692 377.5,256.5C 358.464,262.51 339.464,268.677 320.5,275C 317.833,275.667 315.167,275.667 312.5,275C 293.443,268.925 274.443,262.759 255.5,256.5C 275.521,249.659 295.688,243.326 316,237.5C 328.212,241.071 340.379,244.738 352.5,248.5 Z"/></g>
<g><path style="opacity:1" fill="#ffefb6" d="M 352.5,248.5 C 355.152,248.41 357.485,249.076 359.5,250.5C 356.848,250.59 354.515,249.924 352.5,248.5 Z"/></g>
<g><path style="opacity:1" fill="#fcce9e" d="M 102.5,262.5 C 100.507,294.149 99.8406,326.149 100.5,358.5C 99.5018,326.338 99.1684,294.004 99.5,261.5C 100.791,261.263 101.791,261.596 102.5,262.5 Z"/></g>
<g><path style="opacity:1" fill="#fec230" d="M 176.5,378.5 C 176.167,378.5 175.833,378.5 175.5,378.5C 175.333,346.498 175.5,314.498 176,282.5C 177.302,281.915 178.469,281.249 179.5,280.5C 199.255,273.359 219.255,267.026 239.5,261.5C 239.5,294.167 239.5,326.833 239.5,359.5C 218.425,365.637 197.425,371.97 176.5,378.5 Z"/></g>
<g><path style="opacity:1" fill="#fab164" d="M 249.5,262.5 C 248.167,278.152 247.501,294.152 247.5,310.5C 247.507,326.906 247.84,343.239 248.5,359.5C 246.507,327.184 245.84,294.517 246.5,261.5C 247.791,261.263 248.791,261.596 249.5,262.5 Z"/></g>
<g><path style="opacity:1" fill="#f99a34" d="M 249.5,262.5 C 270.286,268.429 290.953,274.762 311.5,281.5C 312.833,314.167 312.833,346.833 311.5,379.5C 290.467,372.822 269.467,366.155 248.5,359.5C 247.84,343.239 247.507,326.906 247.5,310.5C 247.501,294.152 248.167,278.152 249.5,262.5 Z"/></g>
<g><path style="opacity:1" fill="#fec230" d="M 322.5,378.5 C 321.502,346.338 321.168,314.004 321.5,281.5C 343.031,274.435 364.697,267.768 386.5,261.5C 386.5,294.167 386.5,326.833 386.5,359.5C 365.038,365.432 343.704,371.766 322.5,378.5 Z"/></g>
<g><path style="opacity:1" fill="#f99a34" d="M 102.5,262.5 C 123.54,268.708 144.54,275.041 165.5,281.5C 166.159,314.184 165.493,346.517 163.5,378.5C 142.153,372.587 121.153,365.92 100.5,358.5C 99.8406,326.149 100.507,294.149 102.5,262.5 Z"/></g>
<g><path style="opacity:1" fill="#fdead6" d="M 165.5,281.5 C 166.498,313.996 166.832,346.662 166.5,379.5C 165.209,379.737 164.209,379.404 163.5,378.5C 165.493,346.517 166.159,314.184 165.5,281.5 Z"/></g>
<g><path style="opacity:1" fill="#feebbf" d="M 174.5,281.5 C 174.168,314.004 174.502,346.338 175.5,378.5C 175.833,378.5 176.167,378.5 176.5,378.5C 175.791,379.404 174.791,379.737 173.5,379.5C 173.168,346.662 173.502,313.996 174.5,281.5 Z"/></g>
<g><path style="opacity:1" fill="#fec948" d="M 179.5,280.5 C 178.469,281.249 177.302,281.915 176,282.5C 175.5,314.498 175.333,346.498 175.5,378.5C 174.502,346.338 174.168,314.004 174.5,281.5C 176.042,280.699 177.708,280.366 179.5,280.5 Z"/></g>
<g><path style="opacity:1" fill="#fedf94" d="M 321.5,281.5 C 321.168,314.004 321.502,346.338 322.5,378.5C 322.44,379.043 322.107,379.376 321.5,379.5C 320.17,346.669 320.17,314.002 321.5,281.5 Z"/></g>
<g><path style="opacity:1" fill="#7fc5e0" d="M 389.5,365.5 C 408.628,371.93 427.961,378.097 447.5,384C 379.717,405.624 311.884,427.124 244,448.5C 175.665,427.611 107.499,406.111 39.5,384C 56.2961,379.068 72.9627,373.735 89.5,368C 93.1135,367.064 96.7802,366.564 100.5,366.5C 123.422,373.271 146.255,380.271 169,387.5C 193.427,379.98 217.927,372.646 242.5,365.5C 260.772,370.09 278.772,375.59 296.5,382C 303.203,384.124 310.036,385.624 317,386.5C 318.833,386.333 320.667,386.167 322.5,386C 344.761,378.857 367.095,372.023 389.5,365.5 Z"/></g>
</svg>
